<svg id="ICON" xmlns="http://www.w3.org/2000/svg" viewBox="0 0 128 128"><defs><style>.cls-1{fill:none;stroke:#000050;stroke-linecap:round;stroke-linejoin:round;stroke-width:4px;}.cls-2{fill:#000050;}</style></defs><path class="cls-1" d="M88.59,106H43.23A5.24,5.24,0,0,1,38,100.75V27.25A5.24,5.24,0,0,1,43.23,22h57.54A5.24,5.24,0,0,1,106,27.25V88.18"/><line class="cls-1" x1="72" y1="42" x2="94" y2="42"/><line class="cls-1" x1="50" y1="66" x2="94" y2="66"/><line class="cls-1" x1="50" y1="54" x2="94" y2="54"/><line class="cls-1" x1="50" y1="78" x2="72" y2="78"/><circle class="cls-2" cx="52" cy="42" r="4"/><path class="cls-1" d="M37.24,92.54h-23A5.22,5.22,0,0,1,9,87.32V14.22A5.23,5.23,0,0,1,14.23,9H71.77A5.23,5.23,0,0,1,77,14.22v7.3"/><rect class="cls-1" x="89" y="89" width="30" height="30" rx="15"/><polyline class="cls-1" points="98 103.53 102.3 108 110 100"/></svg>