<svg id="ICON" xmlns="http://www.w3.org/2000/svg" viewBox="0 0 128 128"><defs><style>.cls-1,.cls-3{fill:none;stroke:#000050;stroke-width:4px;}.cls-1{stroke-linecap:round;stroke-linejoin:round;}.cls-2{fill:#000050;}.cls-3{stroke-miterlimit:10;}</style></defs><path class="cls-1" d="M9,9h7.7A7.31,7.31,0,0,1,24,16.31l0,68.38c0,4,3.83,7.31,7.88,7.31H119"/><circle class="cls-2" cx="41.5" cy="109.5" r="11.5"/><circle class="cls-2" cx="94.5" cy="109.5" r="11.5"/><rect class="cls-3" x="36" y="24" width="68" height="56" rx="6"/><path class="cls-2" d="M88.7,51.41l-8-9.08a1,1,0,0,0-1.74.78V60.89a1,1,0,0,0,1.74.78l8-8.69A1.18,1.18,0,0,0,88.7,51.41Z"/><rect class="cls-2" x="51" y="46" width="33" height="12" rx="1.66"/></svg>